<svg width="162" height="96" viewBox="0 0 162 96" fill="none" xmlns="http://www.w3.org/2000/svg">
<mask id="path-1-outside-1_56774_2" maskUnits="userSpaceOnUse" x="41" y="26" width="33" height="38" fill="black">
<rect fill="white" x="41" y="26" width="33" height="38"/>
<path d="M63.45 26.85C64.65 26.65 65.95 26.6667 67.35 26.9C68.6167 27.1 69.7333 27.4333 70.7 27.9C71.5667 28.3333 72.1333 28.7667 72.4 29.2C73.1333 30.3 73.2833 31.7167 72.85 33.45C72.6833 34.0167 72.4 34.5167 72 34.95C71.5667 35.35 71.0333 35.7167 70.4 36.05C69.6667 36.45 68.9333 36.65 68.2 36.65C67.8333 36.65 67.5667 36.5 67.4 36.2C67.3 36.0333 67.3167 35.6667 67.45 35.1C67.8167 33.8667 67.6833 32.9 67.05 32.2C66.4833 31.5333 65.0833 31.05 62.85 30.75C62.55 30.7167 62.25 30.6833 61.95 30.65C60.45 30.5833 59.1333 30.8833 58 31.55C57.0667 32.1167 56.4167 33.05 56.05 34.35C55.8833 35.1167 55.8833 35.8667 56.05 36.6C56.3167 37.5333 56.8167 38.3667 57.55 39.1C58.3833 39.8667 59.7833 40.75 61.75 41.75C63.35 42.55 64.5667 43.2167 65.4 43.75C67.8 45.3167 69.2167 47.0833 69.65 49.05C69.7833 49.9833 69.7667 50.9 69.6 51.8C69.3667 52.9667 68.8667 54.15 68.1 55.35C66.1 58.35 63.0167 60.55 58.85 61.95C57.8167 62.2833 56.7667 62.55 55.7 62.75C54.6667 62.95 53.45 63.05 52.05 63.05C50.95 63.0833 50 63.0167 49.2 62.85C46.5667 62.2833 44.4667 60.9833 42.9 58.95C41.8 57.4167 41.6 55.6333 42.3 53.6C42.8667 51.8333 43.8833 50.45 45.35 49.45C46.55 48.65 47.8 48.2 49.1 48.1C49.5 48.1 49.7667 48.1333 49.9 48.2C50.3667 48.4667 50.45 48.9 50.15 49.5C49.8167 50.2333 49.1167 50.8667 48.05 51.4L47.75 51.55L47.6 52.05C47.3667 52.7833 47.3 53.4167 47.4 53.95C47.4333 54.4833 47.6 55 47.9 55.5C48.7 56.6667 49.7167 57.55 50.95 58.15C53.05 59.1167 55.3333 59.4 57.8 59C61.3 58.3667 63.4 56.7 64.1 54C64.6 52.1 64.0833 50.3667 62.55 48.8C61.4833 47.7667 59.7833 46.6833 57.45 45.55C56.0167 44.8167 55.2833 44.45 55.25 44.45C51.95 42.5167 50.35 40.2333 50.45 37.6C50.4833 36.6 50.7667 35.55 51.3 34.45C52.5 32.05 54.6333 30.0833 57.7 28.55C59.6333 27.6167 61.55 27.05 63.45 26.85Z"/>
</mask>
<path d="M63.45 26.85C64.65 26.65 65.95 26.6667 67.35 26.9C68.6167 27.1 69.7333 27.4333 70.7 27.9C71.5667 28.3333 72.1333 28.7667 72.4 29.2C73.1333 30.3 73.2833 31.7167 72.85 33.45C72.6833 34.0167 72.4 34.5167 72 34.95C71.5667 35.35 71.0333 35.7167 70.4 36.05C69.6667 36.45 68.9333 36.65 68.2 36.65C67.8333 36.65 67.5667 36.5 67.4 36.2C67.3 36.0333 67.3167 35.6667 67.45 35.1C67.8167 33.8667 67.6833 32.9 67.05 32.2C66.4833 31.5333 65.0833 31.05 62.85 30.75C62.55 30.7167 62.25 30.6833 61.95 30.65C60.45 30.5833 59.1333 30.8833 58 31.55C57.0667 32.1167 56.4167 33.05 56.05 34.35C55.8833 35.1167 55.8833 35.8667 56.05 36.6C56.3167 37.5333 56.8167 38.3667 57.55 39.1C58.3833 39.8667 59.7833 40.75 61.75 41.75C63.35 42.55 64.5667 43.2167 65.4 43.75C67.8 45.3167 69.2167 47.0833 69.65 49.05C69.7833 49.9833 69.7667 50.9 69.6 51.8C69.3667 52.9667 68.8667 54.15 68.1 55.35C66.1 58.35 63.0167 60.55 58.85 61.95C57.8167 62.2833 56.7667 62.55 55.7 62.75C54.6667 62.95 53.45 63.05 52.05 63.05C50.95 63.0833 50 63.0167 49.2 62.85C46.5667 62.2833 44.4667 60.9833 42.9 58.95C41.8 57.4167 41.6 55.6333 42.3 53.6C42.8667 51.8333 43.8833 50.45 45.35 49.45C46.55 48.65 47.8 48.2 49.1 48.1C49.5 48.1 49.7667 48.1333 49.9 48.2C50.3667 48.4667 50.45 48.9 50.15 49.5C49.8167 50.2333 49.1167 50.8667 48.05 51.4L47.75 51.55L47.6 52.05C47.3667 52.7833 47.3 53.4167 47.4 53.95C47.4333 54.4833 47.6 55 47.9 55.5C48.7 56.6667 49.7167 57.55 50.95 58.15C53.05 59.1167 55.3333 59.4 57.8 59C61.3 58.3667 63.4 56.7 64.1 54C64.6 52.1 64.0833 50.3667 62.55 48.8C61.4833 47.7667 59.7833 46.6833 57.45 45.55C56.0167 44.8167 55.2833 44.45 55.25 44.45C51.95 42.5167 50.35 40.2333 50.45 37.6C50.4833 36.6 50.7667 35.55 51.3 34.45C52.5 32.05 54.6333 30.0833 57.7 28.55C59.6333 27.6167 61.55 27.05 63.45 26.85Z" fill="white"/>
<path d="M63.45 26.85L63.5023 27.3473L63.5173 27.3457L63.5322 27.3432L63.45 26.85ZM67.35 26.9L67.2678 27.3932L67.272 27.3939L67.35 26.9ZM70.7 27.9L70.9236 27.4527L70.9174 27.4497L70.7 27.9ZM72.4 29.2L71.9742 29.462L71.9789 29.4698L71.984 29.4773L72.4 29.2ZM72.85 33.45L73.3297 33.5911L73.3326 33.5812L73.3351 33.5713L72.85 33.45ZM72 34.95L72.3391 35.3174L72.3538 35.3038L72.3674 35.2891L72 34.95ZM70.4 36.05L70.1671 35.6075L70.1606 35.611L70.4 36.05ZM67.4 36.2L67.8371 35.9572L67.833 35.9499L67.8287 35.9428L67.4 36.2ZM67.45 35.1L66.9707 34.9575L66.9666 34.9714L66.9633 34.9855L67.45 35.1ZM67.05 32.2L66.669 32.5238L66.674 32.5297L66.6792 32.5355L67.05 32.2ZM62.85 30.75L62.9166 30.2543L62.9052 30.2531L62.85 30.75ZM61.95 30.65L62.0052 30.1531L61.9888 30.1512L61.9722 30.1505L61.95 30.65ZM58 31.55L57.7465 31.119L57.7405 31.1226L58 31.55ZM56.05 34.35L55.5688 34.2143L55.5646 34.2289L55.5614 34.2438L56.05 34.35ZM56.05 36.6L55.5624 36.7108L55.5655 36.7242L55.5692 36.7374L56.05 36.6ZM57.55 39.1L57.1964 39.4536L57.2038 39.4609L57.2115 39.468L57.55 39.1ZM61.75 41.75L61.5234 42.1957L61.5264 42.1972L61.75 41.75ZM65.4 43.75L65.6733 43.3313L65.6695 43.3289L65.4 43.75ZM69.65 49.05L70.145 48.9793L70.1423 48.9607L70.1383 48.9424L69.65 49.05ZM69.6 51.8L70.0903 51.8981L70.0916 51.891L69.6 51.8ZM68.1 55.35L68.5161 55.6274L68.5214 55.6192L68.1 55.35ZM58.85 61.95L59.0035 62.4259L59.0093 62.424L58.85 61.95ZM55.7 62.75L55.6079 62.2586L55.605 62.2591L55.7 62.75ZM52.05 63.05V62.55H52.0424L52.0349 62.5502L52.05 63.05ZM49.2 62.85L49.0948 63.3388L49.098 63.3395L49.2 62.85ZM42.9 58.95L42.4937 59.2415L42.4987 59.2484L42.5039 59.2552L42.9 58.95ZM42.3 53.6L42.7729 53.7628L42.7761 53.7527L42.3 53.6ZM45.35 49.45L45.0726 49.034L45.0683 49.0369L45.35 49.45ZM49.1 48.1V47.6H49.0808L49.0617 47.6015L49.1 48.1ZM49.9 48.2L50.1481 47.7659L50.136 47.759L50.1236 47.7528L49.9 48.2ZM50.15 49.5L49.7028 49.2764L49.6986 49.2847L49.6948 49.2931L50.15 49.5ZM48.05 51.4L47.8264 50.9528L48.05 51.4ZM47.75 51.55L47.5264 51.1028L47.3332 51.1994L47.2711 51.4063L47.75 51.55ZM47.6 52.05L48.0765 52.2016L48.0789 52.1937L47.6 52.05ZM47.4 53.95L47.899 53.9188L47.8971 53.8881L47.8914 53.8579L47.4 53.95ZM47.9 55.5L47.4713 55.7572L47.4791 55.7703L47.4876 55.7828L47.9 55.5ZM50.95 58.15L50.7312 58.5997L50.7409 58.6042L50.95 58.15ZM57.8 59L57.8801 59.4936L57.889 59.492L57.8 59ZM64.1 54L63.6165 53.8728L63.616 53.8745L64.1 54ZM62.55 48.8L62.9075 48.4501L62.8979 48.4409L62.55 48.8ZM57.45 45.55L57.2222 45.9952L57.2315 45.9998L57.45 45.55ZM55.25 44.45L54.9973 44.8814L55.1143 44.95H55.25V44.45ZM50.45 37.6L50.9496 37.619L50.9497 37.6167L50.45 37.6ZM51.3 34.45L50.8528 34.2264L50.8501 34.2319L51.3 34.45ZM57.7 28.55L57.4826 28.0997L57.4764 28.1028L57.7 28.55ZM63.5322 27.3432C64.6696 27.1536 65.9134 27.1675 67.2678 27.3932L67.4322 26.4068C65.9867 26.1659 64.6304 26.1464 63.3678 26.3568L63.5322 27.3432ZM67.272 27.3939C68.4994 27.5877 69.5676 27.9086 70.4826 28.3503L70.9174 27.4497C69.899 26.9581 68.7339 26.6123 67.428 26.4061L67.272 27.3939ZM70.4764 28.3472C71.3231 28.7705 71.7835 29.1522 71.9742 29.462L72.8258 28.938C72.4832 28.3812 71.8103 27.8961 70.9236 27.4528L70.4764 28.3472ZM71.984 29.4773C72.6145 30.4231 72.7766 31.6819 72.3649 33.3287L73.3351 33.5713C73.79 31.7514 73.6522 30.1769 72.816 28.9226L71.984 29.4773ZM72.3703 33.3089C72.2253 33.8019 71.9804 34.2341 71.6326 34.6109L72.3674 35.2891C72.8196 34.7992 73.1414 34.2314 73.3297 33.5911L72.3703 33.3089ZM71.6609 34.5826C71.2655 34.9476 70.7698 35.2903 70.1671 35.6075L70.6329 36.4925C71.2969 36.143 71.8679 35.7524 72.3391 35.3174L71.6609 34.5826ZM70.1606 35.611C69.4903 35.9766 68.8386 36.15 68.2 36.15V37.15C69.028 37.15 69.843 36.9234 70.6394 36.4889L70.1606 35.611ZM68.2 36.15C68.0855 36.15 68.0151 36.127 67.9701 36.1017C67.9269 36.0774 67.8811 36.0364 67.8371 35.9572L66.9629 36.4428C67.0856 36.6636 67.2564 36.8476 67.4799 36.9733C67.7016 37.098 67.9478 37.15 68.2 37.15V36.15ZM67.8287 35.9428C67.8574 35.9904 67.8297 35.9819 67.837 35.8227C67.8433 35.6828 67.8735 35.483 67.9367 35.2145L66.9633 34.9855C66.8931 35.2837 66.8483 35.5505 66.838 35.7773C66.8286 35.9848 66.8426 36.2429 66.9713 36.4572L67.8287 35.9428ZM67.9293 35.2425C68.3255 33.9097 68.212 32.7391 67.4208 31.8645L66.6792 32.5355C67.1547 33.0609 67.3078 33.8236 66.9707 34.9575L67.9293 35.2425ZM67.431 31.8762C67.0623 31.4424 66.471 31.1179 65.7382 30.8649C64.9951 30.6083 64.051 30.4068 62.9166 30.2545L62.7834 31.2455C63.8823 31.3932 64.7549 31.5833 65.4118 31.8101C66.079 32.0404 66.471 32.2909 66.669 32.5238L67.431 31.8762ZM62.9052 30.2531C62.6052 30.2197 62.3052 30.1864 62.0052 30.1531L61.8948 31.1469C62.1948 31.1803 62.4948 31.2136 62.7948 31.2469L62.9052 30.2531ZM61.9722 30.1505C60.3897 30.0802 58.9745 30.3966 57.7465 31.119L58.2535 31.981C59.2921 31.37 60.5103 31.0865 61.9278 31.1495L61.9722 30.1505ZM57.7405 31.1226C56.6748 31.7696 55.9613 32.8228 55.5688 34.2143L56.5312 34.4857C56.8721 33.2772 57.4585 32.4637 58.2595 31.9774L57.7405 31.1226ZM55.5614 34.2438C55.3799 35.0788 55.3788 35.903 55.5624 36.7108L56.5376 36.4892C56.3878 35.8304 56.3868 35.1545 56.5386 34.4562L55.5614 34.2438ZM55.5692 36.7374C55.8608 37.758 56.4073 38.6644 57.1964 39.4536L57.9036 38.7464C57.2261 38.069 56.7725 37.3087 56.5308 36.4626L55.5692 36.7374ZM57.2115 39.468C58.0968 40.2824 59.5468 41.1907 61.5234 42.1957L61.9766 41.3043C60.0199 40.3093 58.6699 39.4509 57.8885 38.732L57.2115 39.468ZM61.5264 42.1972C63.121 42.9945 64.3193 43.652 65.1305 44.1711L65.6695 43.3289C64.814 42.7813 63.579 42.1055 61.9736 41.3028L61.5264 42.1972ZM65.1267 44.1687C67.4637 45.6943 68.7666 47.3644 69.1617 49.1576L70.1383 48.9424C69.6667 46.8022 68.1363 44.9391 65.6733 43.3313L65.1267 44.1687ZM69.155 49.1207C69.2809 50.0019 69.2648 50.8639 69.1084 51.709L70.0916 51.891C70.2685 50.9361 70.2858 49.9647 70.145 48.9793L69.155 49.1207ZM69.1097 51.7019C68.8907 52.7971 68.4183 53.923 67.6787 55.0808L68.5214 55.6192C69.315 54.377 69.8427 53.1362 70.0903 51.8981L69.1097 51.7019ZM67.684 55.0727C65.758 57.9617 62.776 60.1034 58.6908 61.476L59.0093 62.424C63.2573 60.9966 66.442 58.7383 68.516 55.6273L67.684 55.0727ZM58.6965 61.4741C57.6833 61.801 56.6538 62.0625 55.6079 62.2586L55.7921 63.2414C56.8796 63.0375 57.9501 62.7657 59.0035 62.4259L58.6965 61.4741ZM55.605 62.2591C54.6113 62.4514 53.4279 62.55 52.05 62.55V63.55C53.4721 63.55 54.7221 63.4486 55.795 63.2409L55.605 62.2591ZM52.0349 62.5502C50.9616 62.5828 50.0528 62.5169 49.302 62.3605L49.098 63.3395C49.9472 63.5164 50.9384 63.5839 52.0651 63.5498L52.0349 62.5502ZM49.3052 62.3612C46.7813 61.8181 44.7868 60.5796 43.2961 58.6448L42.5039 59.2552C44.1466 61.3871 46.352 62.7486 49.0948 63.3388L49.3052 62.3612ZM43.3063 58.6585C42.315 57.2768 42.117 55.6675 42.7728 53.7628L41.8272 53.4372C41.083 55.5991 41.285 57.5566 42.4937 59.2415L43.3063 58.6585ZM42.7761 53.7527C43.3104 52.0869 44.2614 50.7974 45.6317 49.8631L45.0683 49.0369C43.5053 50.1026 42.4229 51.5797 41.8239 53.4473L42.7761 53.7527ZM45.6274 49.866C46.7638 49.1084 47.9326 48.6913 49.1383 48.5985L49.0617 47.6015C47.6674 47.7087 46.3362 48.1916 45.0727 49.034L45.6274 49.866ZM49.1 48.6C49.2882 48.6 49.4325 48.608 49.538 48.6211C49.6527 48.6355 49.6858 48.6519 49.6764 48.6472L50.1236 47.7528C49.9808 47.6814 49.814 47.6479 49.662 47.6289C49.5008 47.6087 49.3118 47.6 49.1 47.6V48.6ZM49.6519 48.6341C49.7888 48.7123 49.8133 48.7769 49.8215 48.8194C49.8341 48.8849 49.8279 49.0262 49.7028 49.2764L50.5972 49.7236C50.7721 49.3738 50.8743 48.9985 50.8035 48.6306C50.7283 48.2397 50.4779 47.9543 50.1481 47.7659L49.6519 48.6341ZM49.6948 49.2931C49.427 49.8824 48.8381 50.4469 47.8264 50.9528L48.2736 51.8472C49.3952 51.2864 50.2064 50.5843 50.6052 49.7069L49.6948 49.2931ZM47.8264 50.9528L47.5264 51.1028L47.9736 51.9972L48.2736 51.8472L47.8264 50.9528ZM47.2711 51.4063L47.1211 51.9063L48.0789 52.1937L48.2289 51.6937L47.2711 51.4063ZM47.1235 51.8984C46.875 52.6795 46.7883 53.4007 46.9086 54.0421L47.8914 53.8579C47.8117 53.4326 47.8583 52.8871 48.0765 52.2016L47.1235 51.8984ZM46.901 53.9812C46.9397 54.6015 47.1339 55.195 47.4713 55.7572L48.3287 55.2428C48.0661 54.805 47.9269 54.3651 47.899 53.9188L46.901 53.9812ZM47.4876 55.7828C48.335 57.0185 49.4175 57.9605 50.7313 58.5996L51.1687 57.7004C50.0158 57.1395 49.065 56.3148 48.3124 55.2172L47.4876 55.7828ZM50.7409 58.6042C52.9386 59.6158 55.3236 59.9081 57.88 59.4936L57.72 58.5064C55.3431 58.8919 53.1614 58.6175 51.1591 57.6958L50.7409 58.6042ZM57.889 59.492C59.6946 59.1653 61.1787 58.5652 62.3108 57.6666C63.4496 56.7629 64.2079 55.5761 64.584 54.1255L63.616 53.8745C63.2921 55.1239 62.6504 56.1204 61.6892 56.8834C60.7213 57.6515 59.4054 58.2014 57.711 58.508L57.889 59.492ZM64.5835 54.1272C65.1342 52.0348 64.5466 50.1252 62.9073 48.4503L62.1927 49.1497C63.62 50.6081 64.0658 52.1652 63.6165 53.8728L64.5835 54.1272ZM62.8979 48.4409C61.7749 47.353 60.0195 46.2422 57.6685 45.1002L57.2315 45.9998C59.5472 47.1245 61.1917 48.1803 62.2021 49.1591L62.8979 48.4409ZM57.6777 45.1049C56.9607 44.738 56.4174 44.4622 56.0486 44.2778C55.8646 44.1858 55.7219 44.1154 55.622 44.0677C55.5726 44.0441 55.53 44.0242 55.4967 44.0095C55.4807 44.0025 55.4613 43.9942 55.4418 43.9868C55.4325 43.9833 55.4167 43.9775 55.3977 43.9718C55.3959 43.9713 55.3314 43.95 55.25 43.95V44.95C55.201 44.95 55.1635 44.9425 55.1505 44.9398C55.1331 44.9362 55.1198 44.9325 55.1127 44.9303C55.0985 44.9261 55.0889 44.9224 55.0871 44.9218C55.0827 44.9201 55.0839 44.9204 55.0939 44.9248C55.1127 44.9331 55.144 44.9476 55.1905 44.9698C55.2823 45.0137 55.4188 45.0809 55.6014 45.1722C55.9659 45.3545 56.5059 45.6286 57.2223 45.9951L57.6777 45.1049ZM55.5027 44.0186C52.2816 42.1314 50.8596 39.9909 50.9496 37.619L49.9504 37.581C49.8404 40.4758 51.6184 42.9019 54.9973 44.8814L55.5027 44.0186ZM50.9497 37.6167C50.9803 36.7003 51.2405 35.7188 51.7499 34.6681L50.8501 34.2319C50.2929 35.3812 49.9864 36.4997 49.9503 37.5833L50.9497 37.6167ZM51.7472 34.6736C52.8868 32.3943 54.9266 30.4957 57.9236 28.9972L57.4764 28.1028C54.34 29.671 52.1132 31.7057 50.8528 34.2264L51.7472 34.6736ZM57.9174 29.0003C59.8052 28.0889 61.6663 27.5405 63.5023 27.3473L63.3977 26.3527C61.4337 26.5595 59.4615 27.1444 57.4826 28.0997L57.9174 29.0003Z" fill="black" mask="url(#path-1-outside-1_56774_2)"/>
<mask id="path-3-outside-2_56774_2" maskUnits="userSpaceOnUse" x="64" y="32" width="35" height="43" fill="black">
<rect fill="white" x="64" y="32" width="35" height="43"/>
<path d="M98.1 43.05C98.1 44.8833 97.6333 46.6333 96.7 48.3C95.8 49.9667 94.5667 51.4333 93 52.7C91.4667 53.9333 89.65 54.9167 87.55 55.65C85.4833 56.3833 83.2833 56.75 80.95 56.75C80.1167 56.75 79.45 56.65 78.95 56.45C78.4833 56.2167 77.95 55.7833 77.35 55.15C75.6833 58.7833 74.3167 62.1333 73.25 65.2C72.2167 68.2333 71.4 71.1833 70.8 74.05C69.5333 73.75 68.5 73.2167 67.7 72.45C66.9 71.7167 66.1667 70.7833 65.5 69.65C65.8333 69.0167 66.2333 68.1833 66.7 67.15C67.1667 66.1167 67.7333 64.85 68.4 63.35C69.0667 61.8167 69.8333 60 70.7 57.9C71.6 55.7667 72.65 53.2833 73.85 50.45C74.3833 49.15 74.85 48.0167 75.25 47.05C75.65 46.0833 76 45.1833 76.3 44.35C76.6 43.4833 76.8667 42.6333 77.1 41.8C77.3667 40.9667 77.6333 40.05 77.9 39.05C76.3333 39.55 74.8833 40.1333 73.55 40.8C72.25 41.4667 71.1667 42.1667 70.3 42.9C70 42.7 69.6833 42.4 69.35 42C69.05 41.6 68.7667 41.1667 68.5 40.7C68.2333 40.2 68 39.7 67.8 39.2C67.6 38.7 67.4833 38.25 67.45 37.85C68.4167 37.1833 69.6167 36.5667 71.05 36C72.4833 35.4333 74.0167 34.95 75.65 34.55C77.2833 34.1167 78.9667 33.7833 80.7 33.55C82.4667 33.3167 84.15 33.2 85.75 33.2C87.65 33.2 89.3667 33.45 90.9 33.95C92.4333 34.4167 93.7333 35.0833 94.8 35.95C95.8667 36.8167 96.6833 37.85 97.25 39.05C97.8167 40.25 98.1 41.5833 98.1 43.05ZM89.2 37.05C87.9333 37.05 86.6333 37.15 85.3 37.35L85.9 38.25C85.5667 38.6833 85.15 39.3333 84.65 40.2C84.15 41.0667 83.6 42.1167 83 43.35C82.4 44.55 81.7333 45.9 81 47.4C80.3 48.9 79.55 50.4833 78.75 52.15C81.35 52.15 83.7167 51.9167 85.85 51.45C87.9833 50.95 89.8 50.2833 91.3 49.45C92.8333 48.5833 94.0167 47.5833 94.85 46.45C95.7167 45.3167 96.15 44.1 96.15 42.8C96.15 41.0667 95.5667 39.6833 94.4 38.65C93.2333 37.5833 91.5 37.05 89.2 37.05Z"/>
</mask>
<path d="M98.1 43.05C98.1 44.8833 97.6333 46.6333 96.7 48.3C95.8 49.9667 94.5667 51.4333 93 52.7C91.4667 53.9333 89.65 54.9167 87.55 55.65C85.4833 56.3833 83.2833 56.75 80.95 56.75C80.1167 56.75 79.45 56.65 78.95 56.45C78.4833 56.2167 77.95 55.7833 77.35 55.15C75.6833 58.7833 74.3167 62.1333 73.25 65.2C72.2167 68.2333 71.4 71.1833 70.8 74.05C69.5333 73.75 68.5 73.2167 67.7 72.45C66.9 71.7167 66.1667 70.7833 65.5 69.65C65.8333 69.0167 66.2333 68.1833 66.7 67.15C67.1667 66.1167 67.7333 64.85 68.4 63.35C69.0667 61.8167 69.8333 60 70.7 57.9C71.6 55.7667 72.65 53.2833 73.85 50.45C74.3833 49.15 74.85 48.0167 75.25 47.05C75.65 46.0833 76 45.1833 76.3 44.35C76.6 43.4833 76.8667 42.6333 77.1 41.8C77.3667 40.9667 77.6333 40.05 77.9 39.05C76.3333 39.55 74.8833 40.1333 73.55 40.8C72.25 41.4667 71.1667 42.1667 70.3 42.9C70 42.7 69.6833 42.4 69.35 42C69.05 41.6 68.7667 41.1667 68.5 40.7C68.2333 40.2 68 39.7 67.8 39.2C67.6 38.7 67.4833 38.25 67.45 37.85C68.4167 37.1833 69.6167 36.5667 71.05 36C72.4833 35.4333 74.0167 34.95 75.65 34.55C77.2833 34.1167 78.9667 33.7833 80.7 33.55C82.4667 33.3167 84.15 33.2 85.75 33.2C87.65 33.2 89.3667 33.45 90.9 33.95C92.4333 34.4167 93.7333 35.0833 94.8 35.95C95.8667 36.8167 96.6833 37.85 97.25 39.05C97.8167 40.25 98.1 41.5833 98.1 43.05ZM89.2 37.05C87.9333 37.05 86.6333 37.15 85.3 37.35L85.9 38.25C85.5667 38.6833 85.15 39.3333 84.65 40.2C84.15 41.0667 83.6 42.1167 83 43.35C82.4 44.55 81.7333 45.9 81 47.4C80.3 48.9 79.55 50.4833 78.75 52.15C81.35 52.15 83.7167 51.9167 85.85 51.45C87.9833 50.95 89.8 50.2833 91.3 49.45C92.8333 48.5833 94.0167 47.5833 94.85 46.45C95.7167 45.3167 96.15 44.1 96.15 42.8C96.15 41.0667 95.5667 39.6833 94.4 38.65C93.2333 37.5833 91.5 37.05 89.2 37.05Z" fill="white"/>
<path d="M96.7 48.3L96.2637 48.0557L96.26 48.0624L96.7 48.3ZM93 52.7L93.3134 53.0896L93.3144 53.0888L93 52.7ZM87.55 55.65L87.3852 55.1779L87.3828 55.1788L87.55 55.65ZM78.95 56.45L78.7264 56.8972L78.745 56.9065L78.7643 56.9142L78.95 56.45ZM77.35 55.15L77.713 54.8061L77.2041 54.2689L76.8955 54.9415L77.35 55.15ZM73.25 65.2L72.7777 65.0357L72.7767 65.0388L73.25 65.2ZM70.8 74.05L70.6848 74.5365L71.1842 74.6548L71.2894 74.1524L70.8 74.05ZM67.7 72.45L68.046 72.0889L68.0379 72.0814L67.7 72.45ZM65.5 69.65L65.0575 69.4171L64.9279 69.6635L65.069 69.9035L65.5 69.65ZM66.7 67.15L67.1557 67.3558L66.7 67.15ZM68.4 63.35L68.8569 63.5531L68.8585 63.5494L68.4 63.35ZM70.7 57.9L70.2393 57.7056L70.2378 57.7093L70.7 57.9ZM73.85 50.45L74.3104 50.645L74.3126 50.6398L73.85 50.45ZM75.25 47.05L74.788 46.8588L75.25 47.05ZM76.3 44.35L76.7705 44.5194L76.7725 44.5136L76.3 44.35ZM77.1 41.8L76.6238 41.6476L76.621 41.6563L76.6185 41.6652L77.1 41.8ZM77.9 39.05L78.3831 39.1788L78.6186 38.2958L77.748 38.5737L77.9 39.05ZM73.55 40.8L73.3264 40.3528L73.3218 40.3551L73.55 40.8ZM70.3 42.9L70.0227 43.316L70.3357 43.5247L70.623 43.2817L70.3 42.9ZM69.35 42L68.95 42.3L68.9577 42.3102L68.9659 42.3201L69.35 42ZM68.5 40.7L68.0588 40.9353L68.0623 40.9417L68.0659 40.9481L68.5 40.7ZM67.8 39.2L68.2642 39.0143V39.0143L67.8 39.2ZM67.45 37.85L67.1661 37.4384L66.9277 37.6028L66.9517 37.8915L67.45 37.85ZM71.05 36L71.2338 36.465L71.2338 36.465L71.05 36ZM75.65 34.55L75.769 35.0357L75.7782 35.0333L75.65 34.55ZM80.7 33.55L80.6345 33.0543L80.6333 33.0545L80.7 33.55ZM90.9 33.95L90.745 34.4255L90.7544 34.4283L90.9 33.95ZM94.8 35.95L95.1153 35.5619L95.1153 35.5619L94.8 35.95ZM97.25 39.05L96.7979 39.2635L97.25 39.05ZM85.3 37.35L85.2258 36.8555L84.4473 36.9723L84.884 37.6273L85.3 37.35ZM85.9 38.25L86.2963 38.5549L86.5148 38.2708L86.316 37.9726L85.9 38.25ZM84.65 40.2L85.0831 40.4499L84.65 40.2ZM83 43.35L83.4472 43.5736L83.4496 43.5687L83 43.35ZM81 47.4L80.5507 47.1804L80.5469 47.1886L81 47.4ZM78.75 52.15L78.2992 51.9336L77.9554 52.65H78.75V52.15ZM85.85 51.45L85.9569 51.9385L85.9641 51.9368L85.85 51.45ZM91.3 49.45L91.5428 49.8871L91.546 49.8853L91.3 49.45ZM94.85 46.45L94.4528 46.1462L94.4472 46.1538L94.85 46.45ZM94.4 38.65L94.0626 39.0191L94.0685 39.0243L94.4 38.65ZM97.6 43.05C97.6 44.7941 97.1571 46.4604 96.2637 48.0557L97.1363 48.5443C98.1096 46.8062 98.6 44.9725 98.6 43.05H97.6ZM96.26 48.0624C95.3935 49.6672 94.2042 51.0834 92.6856 52.3112L93.3144 53.0888C94.9292 51.7832 96.2065 50.2661 97.14 48.5376L96.26 48.0624ZM92.6866 52.3104C91.2031 53.5036 89.4383 54.461 87.3852 55.178L87.7148 56.122C89.8618 55.3723 91.7302 54.363 93.3134 53.0896L92.6866 52.3104ZM87.3828 55.1788C85.3732 55.8919 83.23 56.25 80.95 56.25V57.25C83.3366 57.25 85.5935 56.8748 87.7172 56.1212L87.3828 55.1788ZM80.95 56.25C80.1492 56.25 79.5534 56.1528 79.1357 55.9858L78.7643 56.9142C79.3466 57.1472 80.0841 57.25 80.95 57.25V56.25ZM79.1736 56.0028C78.7825 55.8072 78.2961 55.4216 77.713 54.8061L76.987 55.4939C77.6039 56.145 78.1842 56.6261 78.7264 56.8972L79.1736 56.0028ZM76.8955 54.9415C75.2237 58.5862 73.8507 61.9511 72.7778 65.0357L73.7222 65.3643C74.7827 62.3156 76.143 58.9805 77.8045 55.3585L76.8955 54.9415ZM72.7767 65.0388C71.7374 68.0896 70.9151 71.0592 70.3106 73.9476L71.2894 74.1524C71.8849 71.3074 72.6959 68.3771 73.7233 65.3612L72.7767 65.0388ZM70.9152 73.5635C69.72 73.2804 68.7711 72.784 68.046 72.089L67.354 72.811C68.2289 73.6494 69.3467 74.2196 70.6848 74.5365L70.9152 73.5635ZM68.0379 72.0814C67.2812 71.3878 66.5776 70.4958 65.931 69.3965L65.069 69.9035C65.7557 71.0709 66.5188 72.0455 67.3621 72.8186L68.0379 72.0814ZM65.9425 69.8829C66.2824 69.2371 66.687 68.3937 67.1557 67.3558L66.2443 66.9442C65.7797 67.973 65.3843 68.7963 65.0575 69.4171L65.9425 69.8829ZM67.1557 67.3558C67.6229 66.3213 68.19 65.0536 68.8569 63.5531L67.9431 63.1469C67.2767 64.6464 66.7104 65.9121 66.2443 66.9442L67.1557 67.3558ZM68.8585 63.5494C69.5268 62.0124 70.2947 60.1927 71.1622 58.0907L70.2378 57.7093C69.3719 59.8073 68.6065 61.621 67.9415 63.1506L68.8585 63.5494ZM71.1607 58.0943C72.0606 55.9613 73.1105 53.4782 74.3104 50.645L73.3896 50.255C72.1895 53.0885 71.1394 55.572 70.2393 57.7057L71.1607 58.0943ZM74.3126 50.6398C74.8458 49.3401 75.3123 48.2072 75.712 47.2412L74.788 46.8588C74.3877 47.8261 73.9209 48.9599 73.3874 50.2602L74.3126 50.6398ZM75.712 47.2412C76.1145 46.2685 76.4674 45.3612 76.7704 44.5194L75.8296 44.1806C75.5326 45.0055 75.1855 45.8981 74.788 46.8588L75.712 47.2412ZM76.7725 44.5136C77.0756 43.638 77.3453 42.7784 77.5815 41.9348L76.6185 41.6652C76.388 42.4883 76.1244 43.3287 75.8275 44.1864L76.7725 44.5136ZM77.5762 41.9524C77.8458 41.11 78.1147 40.1854 78.3831 39.1788L77.4169 38.9212C77.152 39.9146 76.8876 40.8233 76.6238 41.6476L77.5762 41.9524ZM77.748 38.5737C76.1592 39.0807 74.685 39.6735 73.3264 40.3528L73.7736 41.2472C75.0816 40.5932 76.5075 40.0193 78.052 39.5263L77.748 38.5737ZM73.3218 40.3551C71.9971 41.0345 70.8797 41.7545 69.977 42.5183L70.623 43.2817C71.4536 42.5788 72.5029 41.8989 73.7782 41.2449L73.3218 40.3551ZM70.5773 42.484C70.3308 42.3196 70.049 42.0578 69.7341 41.6799L68.9659 42.3201C69.3176 42.7422 69.6692 43.0804 70.0227 43.316L70.5773 42.484ZM69.75 41.7C69.4633 41.3178 69.1913 40.9019 68.9341 40.4519L68.0659 40.9481C68.3421 41.4314 68.6367 41.8822 68.95 42.3L69.75 41.7ZM68.9412 40.4647C68.6827 39.98 68.4571 39.4965 68.2642 39.0143L67.3358 39.3857C67.5429 39.9035 67.784 40.42 68.0588 40.9353L68.9412 40.4647ZM68.2642 39.0143C68.0768 38.5457 67.9763 38.1454 67.9483 37.8085L66.9517 37.8915C66.9903 38.3546 67.1232 38.8543 67.3358 39.3857L68.2642 39.0143ZM67.7339 38.2616C68.6614 37.6219 69.8255 37.0218 71.2338 36.465L70.8662 35.535C69.4079 36.1116 68.172 36.7447 67.1661 37.4384L67.7339 38.2616ZM71.2338 36.465C72.6442 35.9074 74.1557 35.4307 75.7689 35.0356L75.5311 34.0643C73.8776 34.4693 72.3224 34.9593 70.8662 35.535L71.2338 36.465ZM75.7782 35.0333C77.3906 34.6055 79.0534 34.2762 80.7667 34.0455L80.6333 33.0545C78.8799 33.2905 77.176 33.6278 75.5218 34.0667L75.7782 35.0333ZM80.7655 34.0457C82.5128 33.8149 84.1742 33.7 85.75 33.7V32.7C84.1258 32.7 82.4205 32.8184 80.6345 33.0543L80.7655 34.0457ZM85.75 33.7C87.6065 33.7 89.2697 33.9443 90.745 34.4254L91.055 33.4746C89.4636 32.9557 87.6935 32.7 85.75 32.7V33.7ZM90.7544 34.4283C92.236 34.8793 93.4759 35.5184 94.4847 36.3381L95.1153 35.5619C93.9908 34.6483 92.6307 33.9541 91.0456 33.4717L90.7544 34.4283ZM94.4847 36.3381C95.4954 37.1592 96.2643 38.1336 96.7979 39.2635L97.7021 38.8365C97.1023 37.5664 96.2379 36.4741 95.1153 35.5619L94.4847 36.3381ZM96.7979 39.2635C97.3298 40.39 97.6 41.6493 97.6 43.05H98.6C98.6 41.5173 98.3035 40.11 97.7021 38.8365L96.7979 39.2635ZM89.2 36.55C87.907 36.55 86.5822 36.6521 85.2258 36.8555L85.3742 37.8445C86.6845 37.6479 87.9597 37.55 89.2 37.55V36.55ZM84.884 37.6273L85.484 38.5273L86.316 37.9726L85.716 37.0726L84.884 37.6273ZM85.5037 37.9451C85.1501 38.4048 84.7205 39.0773 84.2169 39.9501L85.0831 40.4499C85.5795 39.5894 85.9832 38.9619 86.2963 38.5549L85.5037 37.9451ZM84.2169 39.9501C83.7093 40.8299 83.1538 41.8909 82.5504 43.1313L83.4496 43.5687C84.0462 42.3424 84.5907 41.3034 85.0831 40.4499L84.2169 39.9501ZM82.5528 43.1264C81.952 44.328 81.2846 45.6794 80.5508 47.1804L81.4492 47.6196C82.182 46.1206 82.848 44.772 83.4472 43.5736L82.5528 43.1264ZM80.5469 47.1886C79.8478 48.6867 79.0985 50.2684 78.2992 51.9336L79.2008 52.3664C80.0015 50.6982 80.7522 49.1133 81.4531 47.6114L80.5469 47.1886ZM78.75 52.65C81.3793 52.65 83.7825 52.4141 85.9568 51.9384L85.7432 50.9615C83.6508 51.4193 81.3207 51.65 78.75 51.65V52.65ZM85.9641 51.9368C88.1307 51.429 89.9931 50.7481 91.5428 49.8871L91.0572 49.0129C89.6069 49.8186 87.836 50.471 85.7359 50.9632L85.9641 51.9368ZM91.546 49.8853C93.1258 48.9923 94.3685 47.9489 95.2528 46.7462L94.4472 46.1538C93.6648 47.2178 92.5408 48.1743 91.054 49.0147L91.546 49.8853ZM95.2472 46.7537C96.1737 45.5422 96.65 44.2206 96.65 42.8H95.65C95.65 43.9794 95.2597 45.0912 94.4528 46.1463L95.2472 46.7537ZM96.65 42.8C96.65 40.9415 96.0181 39.4152 94.7315 38.2757L94.0685 39.0243C95.1153 39.9514 95.65 41.1919 95.65 42.8H96.65ZM94.7374 38.281C93.4442 37.0986 91.5688 36.55 89.2 36.55V37.55C91.4312 37.55 93.0225 38.068 94.0626 39.019L94.7374 38.281Z" fill="black" mask="url(#path-3-outside-2_56774_2)"/>
<mask id="path-5-outside-3_56774_2" maskUnits="userSpaceOnUse" x="3" y="15" width="155" height="55" fill="black">
<rect fill="white" x="3" y="15" width="155" height="55"/>
<path d="M29.46 31.48C30.3 31.48 30.98 31.82 31.5 32.5C32.06 33.14 32.34 33.66 32.34 34.06C32.34 34.46 32.24 34.76 32.04 34.96C31.76 35.24 30.44 35.82 28.08 36.7C25.76 37.58 22.38 39.1 17.94 41.26C13.5 43.42 11.28 44.92 11.28 45.76C11.28 46.44 12.72 47.56 15.6 49.12C18.48 50.68 21.36 52.22 24.24 53.74C27.16 55.26 28.62 56.32 28.62 56.92C28.62 57.76 27.88 58.18 26.4 58.18C24.96 58.18 22.5 57.48 19.02 56.08C15.58 54.64 12.36 52.96 9.36 51.04C6.36 49.12 4.86 47.6 4.86 46.48C4.86 45.84 5.08 45.04 5.52 44.08C5.96 43.08 6.42 42.38 6.9 41.98C8.94 40.26 12.7 38.08 18.18 35.44C23.7 32.8 27.46 31.48 29.46 31.48ZM116.65 50.98C114.21 56.9 112.31 61.32 110.95 64.24C109.63 67.16 108.73 68.62 108.25 68.62C107.81 68.62 107.23 68.18 106.51 67.3C105.83 66.46 105.49 65.76 105.49 65.2C105.49 63 111.81 47.26 124.45 17.98C124.49 17.86 124.55 17.72 124.63 17.56C124.71 17.36 124.77 17.22 124.81 17.14C124.85 17.02 124.89 16.9 124.93 16.78C125.01 16.66 125.07 16.58 125.11 16.54C125.19 16.5 125.27 16.44 125.35 16.36C125.47 16.28 125.71 16.24 126.07 16.24C126.43 16.24 127.05 16.84 127.93 18.04C128.85 19.24 129.31 20.3 129.31 21.22C129.31 22.1 128.79 23.74 127.75 26.14C126.75 28.5 125.25 31.76 123.25 35.92C121.29 40.04 119.09 45.06 116.65 50.98ZM133.721 32.38C133.721 31.74 134.181 31.42 135.101 31.42C137.821 31.46 141.101 32.52 144.941 34.6C148.781 36.68 151.881 38.88 154.241 41.2C155.521 42.48 156.161 43.66 156.161 44.74C156.161 46.26 153.021 48.74 146.741 52.18C146.261 52.46 145.881 52.68 145.601 52.84C139.241 56.44 134.961 58.24 132.761 58.24C131.561 58.24 130.961 57.84 130.961 57.04C130.961 56.2 132.561 54.84 135.761 52.96C139.001 51.04 142.221 49.22 145.421 47.5C148.661 45.74 150.281 44.64 150.281 44.2C150.281 43.36 148.661 42.02 145.421 40.18C142.181 38.34 139.521 37.12 137.441 36.52C136.681 36.28 135.861 35.66 134.981 34.66C134.141 33.62 133.721 32.86 133.721 32.38Z"/>
</mask>
<path d="M29.46 31.48C30.3 31.48 30.98 31.82 31.5 32.5C32.06 33.14 32.34 33.66 32.34 34.06C32.34 34.46 32.24 34.76 32.04 34.96C31.76 35.24 30.44 35.82 28.08 36.7C25.76 37.58 22.38 39.1 17.94 41.26C13.5 43.42 11.28 44.92 11.28 45.76C11.28 46.44 12.72 47.56 15.6 49.12C18.48 50.68 21.36 52.22 24.24 53.74C27.16 55.26 28.62 56.32 28.62 56.92C28.62 57.76 27.88 58.18 26.4 58.18C24.96 58.18 22.5 57.48 19.02 56.08C15.58 54.64 12.36 52.96 9.36 51.04C6.36 49.12 4.86 47.6 4.86 46.48C4.86 45.84 5.08 45.04 5.52 44.08C5.96 43.08 6.42 42.38 6.9 41.98C8.94 40.26 12.7 38.08 18.18 35.44C23.7 32.8 27.46 31.48 29.46 31.48ZM116.65 50.98C114.21 56.9 112.31 61.32 110.95 64.24C109.63 67.16 108.73 68.62 108.25 68.62C107.81 68.62 107.23 68.18 106.51 67.3C105.83 66.46 105.49 65.76 105.49 65.2C105.49 63 111.81 47.26 124.45 17.98C124.49 17.86 124.55 17.72 124.63 17.56C124.71 17.36 124.77 17.22 124.81 17.14C124.85 17.02 124.89 16.9 124.93 16.78C125.01 16.66 125.07 16.58 125.11 16.54C125.19 16.5 125.27 16.44 125.35 16.36C125.47 16.28 125.71 16.24 126.07 16.24C126.43 16.24 127.05 16.84 127.93 18.04C128.85 19.24 129.31 20.3 129.31 21.22C129.31 22.1 128.79 23.74 127.75 26.14C126.75 28.5 125.25 31.76 123.25 35.92C121.29 40.04 119.09 45.06 116.65 50.98ZM133.721 32.38C133.721 31.74 134.181 31.42 135.101 31.42C137.821 31.46 141.101 32.52 144.941 34.6C148.781 36.68 151.881 38.88 154.241 41.2C155.521 42.48 156.161 43.66 156.161 44.74C156.161 46.26 153.021 48.74 146.741 52.18C146.261 52.46 145.881 52.68 145.601 52.84C139.241 56.44 134.961 58.24 132.761 58.24C131.561 58.24 130.961 57.84 130.961 57.04C130.961 56.2 132.561 54.84 135.761 52.96C139.001 51.04 142.221 49.22 145.421 47.5C148.661 45.74 150.281 44.64 150.281 44.2C150.281 43.36 148.661 42.02 145.421 40.18C142.181 38.34 139.521 37.12 137.441 36.52C136.681 36.28 135.861 35.66 134.981 34.66C134.141 33.62 133.721 32.86 133.721 32.38Z" fill="white"/>
<path d="M31.5 32.5L30.7056 33.1074L30.7257 33.1337L30.7474 33.1585L31.5 32.5ZM32.04 34.96L32.7471 35.6671L32.04 34.96ZM28.08 36.7L27.7306 35.763L27.7253 35.765L28.08 36.7ZM17.94 41.26L18.3775 42.1592H18.3775L17.94 41.26ZM15.6 49.12L16.0763 48.2407L15.6 49.12ZM24.24 53.74L23.7732 54.6244L23.7783 54.627L24.24 53.74ZM19.02 56.08L18.6338 57.0025L18.6468 57.0077L19.02 56.08ZM5.52 44.08L6.42907 44.4967L6.43224 44.4897L6.43532 44.4827L5.52 44.08ZM6.9 41.98L7.54019 42.7482L7.5446 42.7445L6.9 41.98ZM18.18 35.44L17.7485 34.5379L17.746 34.5391L18.18 35.44ZM29.46 32.48C29.9816 32.48 30.3706 32.6693 30.7056 33.1074L32.2944 31.8925C31.5894 30.9707 30.6184 30.48 29.46 30.48V32.48ZM30.7474 33.1585C30.9976 33.4444 31.1569 33.6721 31.2495 33.8441C31.3457 34.0227 31.34 34.0857 31.34 34.06H33.34C33.34 33.6343 33.1943 33.2373 33.0105 32.8959C32.8231 32.5479 32.5624 32.1956 32.2526 31.8415L30.7474 33.1585ZM31.34 34.06C31.34 34.1796 31.3247 34.2436 31.3163 34.2688C31.3096 34.2891 31.3107 34.2751 31.3329 34.2529L32.7471 35.6671C33.2008 35.2134 33.34 34.6141 33.34 34.06H31.34ZM31.3329 34.2529C31.3761 34.2097 31.3575 34.2401 31.1616 34.3454C30.9942 34.4354 30.7558 34.5497 30.4377 34.6895C29.8033 34.9682 28.9038 35.3256 27.7306 35.763L28.4294 37.637C29.6162 37.1944 30.5567 36.8218 31.2423 36.5205C31.5842 36.3703 31.8758 36.2321 32.1084 36.1071C32.3125 35.9974 32.5639 35.8503 32.7471 35.6671L31.3329 34.2529ZM27.7253 35.765C25.3617 36.6616 21.9487 38.1978 17.5025 40.3608L18.3775 42.1592C22.8113 40.0022 26.1583 38.4984 28.4347 37.635L27.7253 35.765ZM17.5025 40.3608C15.2691 41.4473 13.554 42.3866 12.3851 43.1764C11.8039 43.5691 11.3202 43.9497 10.9708 44.318C10.6595 44.6461 10.28 45.143 10.28 45.76H12.28C12.28 45.957 12.178 45.9514 12.4217 45.6945C12.6273 45.4778 12.9761 45.1909 13.5049 44.8336C14.556 44.1234 16.1709 43.2327 18.3775 42.1592L17.5025 40.3608ZM10.28 45.76C10.28 46.268 10.537 46.6871 10.7691 46.9772C11.0179 47.2882 11.3556 47.5956 11.7461 47.8994C12.5307 48.5096 13.667 49.2102 15.1237 49.9993L16.0763 48.2407C14.653 47.4698 13.6293 46.8304 12.9739 46.3206C12.6444 46.0644 12.4421 45.8668 12.3309 45.7278C12.203 45.5679 12.28 45.592 12.28 45.76H10.28ZM15.1237 49.9993C18.0069 51.561 20.89 53.1027 23.7732 54.6244L24.7068 52.8556C21.83 51.3373 18.9531 49.799 16.0763 48.2407L15.1237 49.9993ZM23.7783 54.627C25.2239 55.3795 26.2674 55.9977 26.9375 56.4842C27.2752 56.7294 27.4825 56.9158 27.5954 57.0442C27.7373 57.2056 27.62 57.148 27.62 56.92H29.62C29.62 56.392 29.3202 55.9769 29.0971 55.7233C28.845 55.4367 28.5048 55.1506 28.1125 54.8658C27.3226 54.2923 26.1761 53.6205 24.7017 52.853L23.7783 54.627ZM27.62 56.92C27.62 56.979 27.6085 56.9826 27.619 56.9648C27.629 56.9477 27.6291 56.9625 27.5714 56.9953C27.4256 57.078 27.0782 57.18 26.4 57.18V59.18C27.2018 59.18 27.9644 59.072 28.5586 58.7347C29.2366 58.3499 29.62 57.7057 29.62 56.92H27.62ZM26.4 57.18C25.1786 57.18 22.8868 56.5577 19.3932 55.1523L18.6468 57.0077C22.1132 58.4023 24.7414 59.18 26.4 59.18V57.18ZM19.4061 55.1576C16.0168 53.7388 12.8483 52.0852 9.89905 50.1977L8.82095 51.8823C11.8717 53.8348 15.1432 55.5412 18.6339 57.0024L19.4061 55.1576ZM9.89905 50.1977C8.42607 49.255 7.37151 48.4413 6.69677 47.7576C5.98296 47.0343 5.86 46.6225 5.86 46.48H3.86C3.86 47.4575 4.48704 48.3657 5.27323 49.1624C6.09849 49.9987 7.29393 50.905 8.82095 51.8823L9.89905 50.1977ZM5.86 46.48C5.86 46.0478 6.01486 45.4004 6.42907 44.4967L4.61094 43.6633C4.14514 44.6796 3.86 45.6322 3.86 46.48H5.86ZM6.43532 44.4827C6.85309 43.5332 7.23695 43.0009 7.54018 42.7482L6.25982 41.2118C5.60305 41.7591 5.06691 42.6268 4.60469 43.6773L6.43532 44.4827ZM7.5446 42.7445C9.47965 41.113 13.1384 38.9788 18.614 36.3409L17.746 34.5391C12.2616 37.1812 8.40035 39.407 6.2554 41.2155L7.5446 42.7445ZM18.6115 36.3421C21.3541 35.0304 23.6383 34.057 25.4712 33.4135C27.3288 32.7614 28.6365 32.48 29.46 32.48V30.48C28.2835 30.48 26.7112 30.8586 24.8088 31.5265C22.8817 32.203 20.5259 33.2096 17.7485 34.5379L18.6115 36.3421ZM116.65 50.98L115.725 50.5989L116.65 50.98ZM110.95 64.24L110.043 63.8178L110.039 63.8281L110.95 64.24ZM106.51 67.3L105.733 67.9292L105.736 67.9332L106.51 67.3ZM124.45 17.98L125.368 18.3763L125.385 18.3369L125.399 18.2962L124.45 17.98ZM124.63 17.56L125.524 18.0072L125.543 17.97L125.558 17.9314L124.63 17.56ZM124.81 17.14L125.704 17.5872L125.736 17.5236L125.759 17.4562L124.81 17.14ZM124.93 16.78L124.098 16.2253L124.024 16.3367L123.981 16.4638L124.93 16.78ZM125.11 16.54L124.663 15.6456L124.517 15.7182L124.403 15.8329L125.11 16.54ZM125.35 16.36L124.795 15.528L124.713 15.5829L124.643 15.6529L125.35 16.36ZM127.93 18.04L127.123 18.6314L127.13 18.64L127.136 18.6484L127.93 18.04ZM127.75 26.14L126.832 25.7424L126.829 25.7498L127.75 26.14ZM123.25 35.92L122.349 35.4867L122.347 35.4904L123.25 35.92ZM115.725 50.5989C113.287 56.5158 111.394 60.9189 110.043 63.8178L111.856 64.6622C113.226 61.7211 115.133 57.2842 117.574 51.3611L115.725 50.5989ZM110.039 63.8281C109.384 65.2764 108.85 66.3252 108.434 67.0003C108.223 67.3417 108.066 67.5492 107.962 67.6593C107.91 67.7141 107.896 67.7181 107.92 67.7032C107.94 67.6907 108.058 67.62 108.25 67.62V69.62C108.562 69.62 108.813 69.5037 108.979 69.4C109.149 69.2937 109.295 69.1609 109.415 69.0332C109.656 68.7783 109.897 68.4383 110.136 68.0498C110.62 67.2648 111.196 66.1236 111.861 64.6519L110.039 63.8281ZM108.25 67.62C108.35 67.62 108.309 67.6603 108.089 67.4933C107.887 67.3397 107.618 67.0758 107.284 66.6668L105.736 67.9332C106.121 68.4042 106.503 68.8003 106.88 69.0867C107.24 69.3597 107.71 69.62 108.25 69.62V67.62ZM107.287 66.6708C106.636 65.8667 106.49 65.398 106.49 65.2H104.49C104.49 66.122 105.024 67.0533 105.733 67.9292L107.287 66.6708ZM106.49 65.2C106.49 65.0821 106.548 64.721 106.748 64.0125C106.938 63.3432 107.226 62.4557 107.618 61.3435C108.401 59.1211 109.58 56.0478 111.158 52.1176C114.313 44.2597 119.049 33.014 125.368 18.3763L123.532 17.5837C117.211 32.226 112.467 43.4903 109.302 51.3724C107.72 55.3122 106.529 58.4164 105.732 60.679C105.333 61.8093 105.03 62.7412 104.824 63.4681C104.629 64.1559 104.49 64.7679 104.49 65.2H106.49ZM125.399 18.2962C125.419 18.2352 125.458 18.1407 125.524 18.0072L123.735 17.1128C123.642 17.2993 123.561 17.4847 123.501 17.6638L125.399 18.2962ZM125.558 17.9314C125.638 17.7314 125.685 17.6261 125.704 17.5872L123.915 16.6928C123.855 16.8138 123.781 16.9886 123.701 17.1886L125.558 17.9314ZM125.759 17.4562C125.799 17.3362 125.839 17.2162 125.879 17.0962L123.981 16.4638C123.941 16.5838 123.901 16.7038 123.861 16.8238L125.759 17.4562ZM125.762 17.3347C125.796 17.284 125.82 17.2503 125.835 17.23C125.842 17.2201 125.845 17.2165 125.844 17.2177C125.844 17.2179 125.835 17.2294 125.817 17.2471L124.403 15.8329C124.284 15.9514 124.175 16.1091 124.098 16.2253L125.762 17.3347ZM125.557 17.4344C125.755 17.3356 125.92 17.2039 126.057 17.0671L124.643 15.6529C124.632 15.6637 124.627 15.6668 124.63 15.665C124.632 15.6632 124.643 15.6553 124.663 15.6456L125.557 17.4344ZM125.905 17.192C125.842 17.234 125.793 17.2514 125.779 17.2562C125.762 17.2615 125.762 17.2601 125.784 17.2564C125.831 17.2486 125.921 17.24 126.07 17.24V15.24C125.858 15.24 125.649 15.2514 125.455 15.2836C125.279 15.313 125.027 15.3733 124.795 15.528L125.905 17.192ZM126.07 17.24C125.896 17.24 125.816 17.1745 125.866 17.2053C125.904 17.2282 125.984 17.2869 126.109 17.4086C126.36 17.6512 126.697 18.0493 127.123 18.6314L128.736 17.4486C128.283 16.8307 127.87 16.3288 127.5 15.9714C127.316 15.7931 127.119 15.6268 126.911 15.4996C126.716 15.3805 126.423 15.24 126.07 15.24V17.24ZM127.136 18.6484C128.001 19.777 128.31 20.6218 128.31 21.22H130.31C130.31 19.9782 129.698 18.703 128.723 17.4316L127.136 18.6484ZM128.31 21.22C128.31 21.5009 128.219 22.0109 127.967 22.8078C127.721 23.5834 127.345 24.5593 126.832 25.7424L128.667 26.5376C129.195 25.3207 129.599 24.2766 129.873 23.4122C130.14 22.5691 130.31 21.8191 130.31 21.22H128.31ZM126.829 25.7498C125.838 28.0882 124.346 31.3316 122.349 35.4867L124.151 36.3533C126.153 32.1884 127.661 28.9118 128.671 26.5301L126.829 25.7498ZM122.347 35.4904C120.377 39.6313 118.17 44.6685 115.725 50.5989L117.574 51.3611C120.01 45.4515 122.203 40.4487 124.153 36.3496L122.347 35.4904ZM135.101 31.42L135.115 30.4201L135.108 30.42H135.101V31.42ZM144.941 34.6L144.464 35.4793L144.941 34.6ZM154.241 41.2L154.948 40.4929L154.942 40.4869L154.241 41.2ZM146.741 52.18L146.26 51.303L146.249 51.3094L146.237 51.3162L146.741 52.18ZM145.601 52.84L146.093 53.7103L146.097 53.7082L145.601 52.84ZM135.761 52.96L136.267 53.8222L136.271 53.8203L135.761 52.96ZM145.421 47.5L145.894 48.3808L145.898 48.3787L145.421 47.5ZM145.421 40.18L145.915 39.3104L145.421 40.18ZM137.441 36.52L137.14 37.4736L137.152 37.4774L137.164 37.4808L137.441 36.52ZM134.981 34.66L134.203 35.2883L134.216 35.3048L134.23 35.3206L134.981 34.66ZM134.721 32.38C134.721 32.3397 134.728 32.3527 134.709 32.3921C134.688 32.4365 134.656 32.4675 134.637 32.4809C134.624 32.4898 134.643 32.4727 134.723 32.4542C134.803 32.4355 134.926 32.42 135.101 32.42V30.42C134.556 30.42 133.969 30.5092 133.495 30.8391C132.955 31.2148 132.721 31.7865 132.721 32.38H134.721ZM135.086 32.4199C137.576 32.4565 140.69 33.4346 144.464 35.4793L145.417 33.7207C141.512 31.6054 138.066 30.4635 135.115 30.4201L135.086 32.4199ZM144.464 35.4793C148.247 37.528 151.264 39.6758 153.54 41.9131L154.942 40.4869C152.498 38.0841 149.315 35.832 145.417 33.7207L144.464 35.4793ZM153.534 41.9071C154.746 43.1192 155.161 44.0565 155.161 44.74H157.161C157.161 43.2635 156.296 41.8408 154.948 40.4929L153.534 41.9071ZM155.161 44.74C155.161 44.7892 155.125 45.0104 154.785 45.4425C154.461 45.8555 153.94 46.3597 153.186 46.9552C151.681 48.1437 149.383 49.5924 146.26 51.303L147.221 53.057C150.378 51.3276 152.79 49.8162 154.426 48.5248C155.242 47.8803 155.898 47.2645 156.359 46.6775C156.804 46.1096 157.161 45.4508 157.161 44.74H155.161ZM146.237 51.3162C145.758 51.5956 145.381 51.8139 145.105 51.9718L146.097 53.7082C146.381 53.5461 146.764 53.3244 147.245 53.0438L146.237 51.3162ZM145.108 51.9697C141.945 53.7601 139.323 55.0893 137.233 55.9682C135.11 56.8612 133.647 57.24 132.761 57.24V59.24C134.074 59.24 135.852 58.7188 138.008 57.8118C140.199 56.8907 142.896 55.5199 146.093 53.7103L145.108 51.9697ZM132.761 57.24C132.24 57.24 132.025 57.1475 131.965 57.1079C131.949 57.097 131.959 57.1005 131.968 57.1178C131.974 57.1309 131.961 57.1144 131.961 57.04H129.961C129.961 57.7313 130.244 58.3639 130.856 58.772C131.397 59.1325 132.081 59.24 132.761 59.24V57.24ZM131.961 57.04C131.961 57.1361 131.923 57.1019 132.07 56.9007C132.205 56.7145 132.44 56.4652 132.808 56.1519C133.543 55.5274 134.686 54.7515 136.267 53.8222L135.254 52.0978C133.636 53.0485 132.378 53.8926 131.513 54.6281C131.082 54.9948 130.717 55.3605 130.452 55.7243C130.198 56.0731 129.961 56.5239 129.961 57.04H131.961ZM136.271 53.8203C139.499 51.9071 142.707 50.094 145.894 48.3808L144.947 46.6192C141.735 48.346 138.503 50.1729 135.251 52.0997L136.271 53.8203ZM145.898 48.3787C147.527 47.4941 148.776 46.7604 149.628 46.1823C150.049 45.8958 150.405 45.6264 150.666 45.3785C150.796 45.2554 150.929 45.1124 151.036 44.9522C151.132 44.8092 151.281 44.5444 151.281 44.2H149.281C149.281 44.0752 149.309 43.9813 149.329 43.9289C149.35 43.8762 149.37 43.8458 149.374 43.8397C149.38 43.8307 149.361 43.8596 149.288 43.929C149.144 44.0661 148.892 44.2642 148.504 44.5277C147.735 45.0495 146.555 45.7459 144.943 46.6213L145.898 48.3787ZM151.281 44.2C151.281 43.6788 151.038 43.2268 150.78 42.8798C150.511 42.5178 150.14 42.156 149.703 41.7944C148.827 41.0694 147.553 40.2408 145.915 39.3104L144.927 41.0496C146.529 41.9592 147.685 42.7206 148.428 43.3356C148.801 43.644 149.038 43.8897 149.174 44.0727C149.322 44.2707 149.281 44.3012 149.281 44.2H151.281ZM145.915 39.3104C142.648 37.4551 139.909 36.1911 137.718 35.5592L137.164 37.4808C139.133 38.0489 141.714 39.2248 144.927 41.0496L145.915 39.3104ZM137.742 35.5664C137.236 35.4067 136.563 34.9442 135.731 33.9994L134.23 35.3206C135.159 36.3758 136.125 37.1533 137.14 37.4736L137.742 35.5664ZM135.759 34.0317C135.358 33.5355 135.082 33.1359 134.911 32.8263C134.726 32.4923 134.721 32.3635 134.721 32.38H132.721C132.721 32.8765 132.925 33.3677 133.161 33.7937C133.409 34.2441 133.764 34.7445 134.203 35.2883L135.759 34.0317Z" fill="#040404" mask="url(#path-5-outside-3_56774_2)"/>
</svg>
